<mxfile host="Electron" agent="Mozilla/5.0 (Windows NT 10.0; Win64; x64) AppleWebKit/537.36 (KHTML, like Gecko) draw.io/24.7.8 Chrome/128.0.6613.36 Electron/32.0.1 Safari/537.36" version="24.7.8">
  <diagram name="Page-1" id="DTOjCeoCMkrWm6UypcxA">
    <mxGraphModel dx="956" dy="1102" grid="1" gridSize="10" guides="1" tooltips="1" connect="1" arrows="1" fold="1" page="1" pageScale="1" pageWidth="850" pageHeight="1100" math="0" shadow="0">
      <root>
        <mxCell id="0" />
        <mxCell id="1" parent="0" />
        <mxCell id="q83wEkAE2WMuQDcjkShN-1" value="Start" style="rounded=1;whiteSpace=wrap;html=1;" vertex="1" parent="1">
          <mxGeometry x="365" y="40" width="120" height="60" as="geometry" />
        </mxCell>
        <mxCell id="q83wEkAE2WMuQDcjkShN-20" value="" style="edgeStyle=orthogonalEdgeStyle;rounded=0;orthogonalLoop=1;jettySize=auto;html=1;" edge="1" parent="1" source="q83wEkAE2WMuQDcjkShN-2" target="q83wEkAE2WMuQDcjkShN-6">
          <mxGeometry relative="1" as="geometry" />
        </mxCell>
        <mxCell id="q83wEkAE2WMuQDcjkShN-2" value="x: (int) = 0" style="rounded=0;whiteSpace=wrap;html=1;" vertex="1" parent="1">
          <mxGeometry x="80" y="160" width="120" height="60" as="geometry" />
        </mxCell>
        <mxCell id="q83wEkAE2WMuQDcjkShN-22" value="" style="edgeStyle=orthogonalEdgeStyle;rounded=0;orthogonalLoop=1;jettySize=auto;html=1;" edge="1" parent="1" source="q83wEkAE2WMuQDcjkShN-3" target="q83wEkAE2WMuQDcjkShN-10">
          <mxGeometry relative="1" as="geometry" />
        </mxCell>
        <mxCell id="q83wEkAE2WMuQDcjkShN-3" value="y: (int) = 40" style="rounded=0;whiteSpace=wrap;html=1;" vertex="1" parent="1">
          <mxGeometry x="280" y="160" width="120" height="60" as="geometry" />
        </mxCell>
        <mxCell id="q83wEkAE2WMuQDcjkShN-24" value="" style="edgeStyle=orthogonalEdgeStyle;rounded=0;orthogonalLoop=1;jettySize=auto;html=1;" edge="1" parent="1" source="q83wEkAE2WMuQDcjkShN-4" target="q83wEkAE2WMuQDcjkShN-9">
          <mxGeometry relative="1" as="geometry" />
        </mxCell>
        <mxCell id="q83wEkAE2WMuQDcjkShN-4" value="z: (int) = 77" style="rounded=0;whiteSpace=wrap;html=1;" vertex="1" parent="1">
          <mxGeometry x="480" y="160" width="120" height="60" as="geometry" />
        </mxCell>
        <mxCell id="q83wEkAE2WMuQDcjkShN-26" value="" style="edgeStyle=orthogonalEdgeStyle;rounded=0;orthogonalLoop=1;jettySize=auto;html=1;" edge="1" parent="1" source="q83wEkAE2WMuQDcjkShN-5" target="q83wEkAE2WMuQDcjkShN-8">
          <mxGeometry relative="1" as="geometry" />
        </mxCell>
        <mxCell id="q83wEkAE2WMuQDcjkShN-5" value="a: (int) = 99" style="rounded=0;whiteSpace=wrap;html=1;" vertex="1" parent="1">
          <mxGeometry x="680" y="160" width="120" height="60" as="geometry" />
        </mxCell>
        <mxCell id="q83wEkAE2WMuQDcjkShN-21" value="" style="edgeStyle=orthogonalEdgeStyle;rounded=0;orthogonalLoop=1;jettySize=auto;html=1;" edge="1" parent="1" source="q83wEkAE2WMuQDcjkShN-6" target="q83wEkAE2WMuQDcjkShN-11">
          <mxGeometry relative="1" as="geometry" />
        </mxCell>
        <mxCell id="q83wEkAE2WMuQDcjkShN-6" value="for i in range" style="ellipse;whiteSpace=wrap;html=1;aspect=fixed;" vertex="1" parent="1">
          <mxGeometry x="100" y="280" width="80" height="80" as="geometry" />
        </mxCell>
        <mxCell id="q83wEkAE2WMuQDcjkShN-27" value="" style="edgeStyle=orthogonalEdgeStyle;rounded=0;orthogonalLoop=1;jettySize=auto;html=1;" edge="1" parent="1" source="q83wEkAE2WMuQDcjkShN-8" target="q83wEkAE2WMuQDcjkShN-14">
          <mxGeometry relative="1" as="geometry" />
        </mxCell>
        <mxCell id="q83wEkAE2WMuQDcjkShN-8" value="for i in range" style="ellipse;whiteSpace=wrap;html=1;aspect=fixed;" vertex="1" parent="1">
          <mxGeometry x="700" y="280" width="80" height="80" as="geometry" />
        </mxCell>
        <mxCell id="q83wEkAE2WMuQDcjkShN-25" value="" style="edgeStyle=orthogonalEdgeStyle;rounded=0;orthogonalLoop=1;jettySize=auto;html=1;" edge="1" parent="1" source="q83wEkAE2WMuQDcjkShN-9" target="q83wEkAE2WMuQDcjkShN-13">
          <mxGeometry relative="1" as="geometry" />
        </mxCell>
        <mxCell id="q83wEkAE2WMuQDcjkShN-9" value="for i in range" style="ellipse;whiteSpace=wrap;html=1;aspect=fixed;" vertex="1" parent="1">
          <mxGeometry x="500" y="280" width="80" height="80" as="geometry" />
        </mxCell>
        <mxCell id="q83wEkAE2WMuQDcjkShN-23" value="" style="edgeStyle=orthogonalEdgeStyle;rounded=0;orthogonalLoop=1;jettySize=auto;html=1;" edge="1" parent="1" source="q83wEkAE2WMuQDcjkShN-10" target="q83wEkAE2WMuQDcjkShN-12">
          <mxGeometry relative="1" as="geometry" />
        </mxCell>
        <mxCell id="q83wEkAE2WMuQDcjkShN-10" value="for i in range" style="ellipse;whiteSpace=wrap;html=1;aspect=fixed;" vertex="1" parent="1">
          <mxGeometry x="300" y="280" width="80" height="80" as="geometry" />
        </mxCell>
        <mxCell id="q83wEkAE2WMuQDcjkShN-16" style="edgeStyle=orthogonalEdgeStyle;rounded=0;orthogonalLoop=1;jettySize=auto;html=1;entryX=0.5;entryY=0;entryDx=0;entryDy=0;" edge="1" parent="1" source="q83wEkAE2WMuQDcjkShN-11" target="q83wEkAE2WMuQDcjkShN-15">
          <mxGeometry relative="1" as="geometry">
            <Array as="points">
              <mxPoint x="140" y="660" />
              <mxPoint x="425" y="660" />
            </Array>
          </mxGeometry>
        </mxCell>
        <mxCell id="q83wEkAE2WMuQDcjkShN-11" value="0 - 10" style="shape=document;whiteSpace=wrap;html=1;boundedLbl=1;" vertex="1" parent="1">
          <mxGeometry x="80" y="430" width="120" height="80" as="geometry" />
        </mxCell>
        <mxCell id="q83wEkAE2WMuQDcjkShN-17" style="edgeStyle=orthogonalEdgeStyle;rounded=0;orthogonalLoop=1;jettySize=auto;html=1;entryX=0.5;entryY=0;entryDx=0;entryDy=0;" edge="1" parent="1" source="q83wEkAE2WMuQDcjkShN-12" target="q83wEkAE2WMuQDcjkShN-15">
          <mxGeometry relative="1" as="geometry">
            <Array as="points">
              <mxPoint x="340" y="660" />
              <mxPoint x="425" y="660" />
            </Array>
          </mxGeometry>
        </mxCell>
        <mxCell id="q83wEkAE2WMuQDcjkShN-12" value="40-88 by 2" style="shape=document;whiteSpace=wrap;html=1;boundedLbl=1;" vertex="1" parent="1">
          <mxGeometry x="280" y="430" width="120" height="80" as="geometry" />
        </mxCell>
        <mxCell id="q83wEkAE2WMuQDcjkShN-18" style="edgeStyle=orthogonalEdgeStyle;rounded=0;orthogonalLoop=1;jettySize=auto;html=1;entryX=0.5;entryY=0;entryDx=0;entryDy=0;" edge="1" parent="1" source="q83wEkAE2WMuQDcjkShN-13" target="q83wEkAE2WMuQDcjkShN-15">
          <mxGeometry relative="1" as="geometry">
            <Array as="points">
              <mxPoint x="540" y="660" />
              <mxPoint x="425" y="660" />
            </Array>
          </mxGeometry>
        </mxCell>
        <mxCell id="q83wEkAE2WMuQDcjkShN-13" value="77-105 %7" style="shape=document;whiteSpace=wrap;html=1;boundedLbl=1;" vertex="1" parent="1">
          <mxGeometry x="480" y="430" width="120" height="80" as="geometry" />
        </mxCell>
        <mxCell id="q83wEkAE2WMuQDcjkShN-19" style="edgeStyle=orthogonalEdgeStyle;rounded=0;orthogonalLoop=1;jettySize=auto;html=1;entryX=0.5;entryY=0;entryDx=0;entryDy=0;" edge="1" parent="1" source="q83wEkAE2WMuQDcjkShN-14" target="q83wEkAE2WMuQDcjkShN-15">
          <mxGeometry relative="1" as="geometry">
            <Array as="points">
              <mxPoint x="740" y="660" />
              <mxPoint x="425" y="660" />
            </Array>
          </mxGeometry>
        </mxCell>
        <mxCell id="q83wEkAE2WMuQDcjkShN-14" value="99-66 % -3" style="shape=document;whiteSpace=wrap;html=1;boundedLbl=1;" vertex="1" parent="1">
          <mxGeometry x="680" y="430" width="120" height="80" as="geometry" />
        </mxCell>
        <mxCell id="q83wEkAE2WMuQDcjkShN-15" value="End" style="rounded=1;whiteSpace=wrap;html=1;" vertex="1" parent="1">
          <mxGeometry x="365" y="670" width="120" height="60" as="geometry" />
        </mxCell>
      </root>
    </mxGraphModel>
  </diagram>
</mxfile>
